<?xml version="1.0" standalone="no"?><!DOCTYPE svg PUBLIC "-//W3C//DTD SVG 1.1//EN" "http://www.w3.org/Graphics/SVG/1.1/DTD/svg11.dtd"><svg t="1551161582738" class="icon" style="" viewBox="0 0 1024 1024" version="1.1" xmlns="http://www.w3.org/2000/svg" p-id="2767" xmlns:xlink="http://www.w3.org/1999/xlink" width="512" height="512"><defs><style type="text/css"></style></defs><path d="M768 651.776a194.56 194.56 0 0 1-170.666667-91.136l29.696-17.066667A162.645333 162.645333 0 0 0 768 617.642667a162.645333 162.645333 0 0 0 141.824-74.069334l29.696 17.066667A194.56 194.56 0 0 1 768 651.776z" fill="#19A764" p-id="2768"></path><path d="M963.754667 477.866667A30.890667 30.890667 0 0 1 989.866667 509.952l-59.904 423.936V938.666667a31.402667 31.402667 0 0 1-26.112 34.133333h-271.36a31.402667 31.402667 0 0 1-26.112-34.133333v-4.778667L546.133333 509.952A30.890667 30.890667 0 0 1 572.245333 477.866667h391.509334m0-34.133334H572.245333A64.682667 64.682667 0 0 0 512 512l60.245333 426.666667a64.682667 64.682667 0 0 0 60.245334 68.266666h271.018666a64.682667 64.682667 0 0 0 60.245334-68.266666L1024 512a64.682667 64.682667 0 0 0-60.245333-68.266667zM136.533333 802.133333H102.4v221.866667h34.133333V802.133333zM256 802.133333h-34.133333v221.866667h34.133333V802.133333zM375.466667 802.133333h-34.133334v221.866667h34.133334V802.133333zM273.066667 0h-34.133334v529.066667h34.133334V0zM443.733333 699.733333H34.133333v34.133334h409.6v-34.133334z" fill="#333333" p-id="2769"></path><path d="M477.866667 1024h-34.133334V781.141333C443.733333 651.605333 351.914667 546.133333 238.933333 546.133333S34.133333 651.605333 34.133333 781.141333V1024H0V781.141333C0 632.832 107.178667 512 238.933333 512s238.933333 120.832 238.933334 269.141333z" fill="#333333" p-id="2770"></path></svg>