<?xml version="1.0" standalone="no"?><!DOCTYPE svg PUBLIC "-//W3C//DTD SVG 1.1//EN" "http://www.w3.org/Graphics/SVG/1.1/DTD/svg11.dtd"><svg t="1551161615821" class="icon" style="" viewBox="0 0 1024 1024" version="1.1" xmlns="http://www.w3.org/2000/svg" p-id="3033" xmlns:xlink="http://www.w3.org/1999/xlink" width="512" height="512"><defs><style type="text/css"></style></defs><path d="M229.360694 690.238599c-15.695257 6.059654-29.710792 13.707808-41.990652 22.93838-12.27986 9.233005-20.705236 21.354745-25.27856 36.359139-2.854678 8.662556-5.149854 19.620288-6.850255 32.891441-3.870297 29.989326 1.368348 133.590919 0.420843 127.870615 1.99718 12.122957 4.991734 21.364476 9.004339 27.706314 2.855895 4.035715 10.843399 8.224685 23.999002 12.549881 13.138575 4.334927 75.76635 5.824906 95.491241 10.152535 2.102999 0.46463 3.76691 0.675052 5.307975 0.823442l26.942471-157.16178c0-8.101837 2.1553-15.634442 5.641243-22.36185l14.539763-138.29682c-12.770033 5.177829-26.679748 9.933599-42.059982 14.146896C277.674939 662.472686 245.074196 684.176512 229.360694 690.238599zM707.023669 515.59237c35.10634-47.824072 56.215391-108.751446 56.215391-175.180188 0-153.56272-112.431999-278.045913-251.137499-278.045913-138.707932 0-251.137499 124.483193-251.137499 278.045913 0 115.268433 63.537574 213.718954 153.807198 255.816641-7.584906 3.590546-31.322402 18.7859-34.458047 21.887489 4.413987 4.966192 6.936613 11.562238 6.183717 18.692244l-17.902859 125.157029 287.013763 0-17.919887-125.157029c-0.735867-7.130006 1.786759-13.726052 6.201962-18.692244-3.136862-3.101589-26.749078-18.200855-34.213569-21.765858 22.511456-10.528375 43.479415-24.334704 62.067056-41.299788C690.556055 546.766382 704.255349 529.125029 707.023669 515.59237zM642.206537 404.387627c-0.29678 6.631319-0.384354 13.357511-0.367325 19.638533 0.473144 3.704879 0.717623 7.462059 0.717623 11.272756 0 2.1553-0.228666 4.257083-0.384354 6.377111 0.192177 5.553669 0.384354 9.073669 0.384354 9.073669-0.683566 1.944879-1.734457 3.704879-2.504381 5.614485-6.885528 28.835049-27.66131 53.420312-56.197147 69.082729l0 57.134921c0 29.719306-24.089009 53.815613-53.815613 53.815613L494.162213 636.397443c-29.72782 0-53.815613-24.097523-53.815613-53.815613l0-57.318584c-35.246216-19.357565-58.702744-52.281846-58.702744-89.96433 0-3.888541 0.263939-7.724781 0.754112-11.50872l1.278341-19.401352c3.293766-24.832174 10.930973-48.752116 27.171137-64.229654 24.244697-23.097717 36.034384-61.050221 41.727929-90.253812 5.272702 25.655616 17.308084 56.609476 44.705455 63.704209 46.494646 12.017138 67.113524 12.630158 88.344206 13.007214 10.072259 0.183663 52.764721-1.777028 57.054645 45.705261 0 0-0.525446 13.532659-1.207795 32.065567L642.206537 404.387627zM868.96068 782.427559c-1.716213-13.271153-3.99436-24.228885-6.850255-32.891441-4.572107-15.004394-12.998699-27.126134-25.277344-36.359139-12.298105-9.231789-26.294178-16.878727-42.00768-22.93838-15.696474-6.062086-48.298433-27.765913-65.149184-32.381807-15.38145-4.213296-29.289948-8.969066-42.059982-14.146896l14.538547 138.29682c3.485943 6.726191 5.64246 14.260012 5.64246 22.36185l26.941255 157.16178c1.541064-0.14839 3.204975-0.358811 5.307975-0.823442 19.726107-4.327629 82.352666-5.816392 95.491241-10.152535 13.137359-4.326413 21.143108-8.514166 23.997786-12.549881 3.99436-6.341838 7.007159-15.584573 9.004339-27.706314C867.594765 916.018477 872.830977 812.416885 868.96068 782.427559z" p-id="3034"></path></svg>