<?xml version="1.0" standalone="no"?><!DOCTYPE svg PUBLIC "-//W3C//DTD SVG 1.1//EN" "http://www.w3.org/Graphics/SVG/1.1/DTD/svg11.dtd"><svg t="1551161609509" class="icon" style="" viewBox="0 0 1024 1024" version="1.1" xmlns="http://www.w3.org/2000/svg" p-id="2917" xmlns:xlink="http://www.w3.org/1999/xlink" width="512" height="512"><defs><style type="text/css"></style></defs><path d="M637.845173 535.62507m-11.571546 0a11.308 11.308 0 1 0 23.143093 0 11.308 11.308 0 1 0-23.143093 0ZM406.41629 524.053524c-6.390547 0-11.571546 5.180999-11.571546 11.57257 0 4.993734 3.200902 9.155521 7.633864 10.775414 2.553149 0.00614 5.17179 0.01535 7.762801 0.023536 4.487198-1.592264 7.746428-5.765307 7.746428-10.79895C417.987836 529.234523 412.806837 524.053524 406.41629 524.053524zM195.558931 461.661521c0 0 0.077771-0.007163 0.092098-0.014326-0.008186-0.001023-0.092098-0.001023-0.092098-0.001023L195.558931 461.661521zM847.416236 464.910519c-4.224208-9.856485-15.617699-49.438992-21.475104-70.131267 10.31902-8.500605 22.186302-15.627932 30.475082-21.153786 15.428388-10.286274 3.856841-39.85573-6.42841-51.4283-10.286274-11.571546-55.286164-59.144028-111.856577-104.143918-56.571437-45.000913-119.571283-61.714574-164.571173-70.714552-45.000913-8.999978-101.571327 1.286296-140.142807 6.42841s-97.714486 41.143049-124.715443 59.141982c-26.999934 17.999956-96.42819 84.857667-127.284965 123.429147-30.857798 38.570457-38.571481 71.999824-37.285185 88.713484 0.873903 11.369955 18.889209 20.857027 32.8205 26.635637-1.534959-10.674107-1.63422-22.284539 2.682086-31.375591 3.314489-6.961552 8.889461-11.872399 16.167215-14.177907 22.551622-7.188726 36.928051-37.703717 38.105876-40.380686 0.228197 0.100284 0.205685 0.26913 0.540306 0.332575 0.321318 0.068562 0.356111-0.052189 0.596588-0.042979-0.084934 0.220011-0.205685 0.198521-0.270153 0.509606-0.300852 1.445932-2.088568 44.024679-34.302247 54.286394-3.210112 1.02433-5.409197 2.953262-6.885827 6.071276-3.703345 7.782244 1.473561 23.362081 3.958148 34.141588 1.174756 0.589424-1.617847 0.469698-1.892093 0.592494 0.166799 0.011256 1.757017 0.022513 1.747807 0.033769-0.176009 0.058328 0.671289 0.176009 0.648776 0.364297-10.828626 13.773701-21.396309 28.319999-29.964452 38.865169-25.071002 30.857798-24.833595 92.89369-5.548366 131.465171 19.286252 38.571481 34.833343 65.732074 11.69025 108.160395-23.143093 42.428322-17.297968 61.794391 17.415648 100.365872 34.714639 38.571481 108.030435 48.255027 169.745009 55.968709 10.79281 1.349741 22.562878 2.4017 40.507576 3.188622 18.576077-10.223852 35.601846-18.034748 64.25442-22.381753l0-62.793138c-132.0065-13.269211-186.390108-94.517677-199.24488-190.966333-7.543813-3.297093-30.680766-15.254425-38.893822-28.395724-9.643638-15.428388-19.470447-47.224558-2.113127-53.011354 15.152095-5.051039 19.218714-0.899486 35.591613 6.64842 0 1.503237 0-0.034792 0-0.034792l6.100952 0c1.667989 0 3.374864 2.289136 5.088902 3.51301l0.496304-5.898337 4.022617-49.047066c0 0 33.109072-2.889817 60.110029-27.318182 34.714639-14.143115 40.340777-5.302773 66.054415-15.588023 25.714661-10.286274 18.885116-24.508183 42.027186-30.937616 23.143093-6.427386 44.800345-3.895727 58.942437-10.32516 5.995551-2.724041 12.420891-9.414417 18.633383-16.669658 8.444323-9.859555 16.48444-20.789489 22.408359-24.492834 10.286274-6.42841 19.23611-10.295484 19.23611-10.295484s8.890484 21.960151 20.720927 31.69077c2.421142 1.991354 4.919033 3.64911 7.53972 4.304026 15.429411 3.856841 32.129768 12.853749 46.272883 32.140001 14.143115 19.285229 33.422204 14.423501 47.565319 15.709797 14.144138 1.285273 42.422182 18.281365 57.850569 18.281365 13.31833 0 19.615757 0 21.175275 0 5.463432 11.256368 8.396227 43.296085 8.396227 67.865667 0 4.281513-0.2415 12.951987-0.027629 9.818623-0.044002 0.647753-0.158612 2.411933-0.196475 2.972705l-0.258896 0.538259c15.429411-8.627495 23.324218-10.207479 39.072901-4.956895 17.35732 5.78475 5.776563 37.456077-3.866051 52.884464-7.791453 12.464893-34.46086 24.569582-43.211151 28.655643-9.69378 97.815793-47.76077 180.665733-210.466456 193.205327l0 61.971423c30.699186 4.148483 56.881498 11.95938 76.226079 22.453385 32.446993-1.13894 63.909565-2.688225 87.026052-4.614088 92.571349-7.714705 145.494699-81.000825 141.637858-119.572306s-13.07376-67.500347 13.925151-150.429081C900.991432 542.054503 853.202009 478.410997 847.416236 464.910519zM753.754043 385.389394l-14.868639 0.738827c-47.206138-72.520687-128.899742-120.503515-221.896786-120.503515-102.387925 0-191.0615 58.158584-235.097436 143.201469l-18.635429 0.926092-4.349051 0.214894c26.773783-117.937063 132.041292-204.514907 258.081916-204.514907 115.733884 0 213.839273 72.956615 249.881141 179.285293L753.754043 385.389394zM774.069741 549.703717c0.007163 0.585331 0.017396 2.824325 0.024559-0.016373L774.069741 549.703717zM406.41629 517.625114c-16.847713 0-30.643927 12.505825-32.952506 28.714995-0.221034 1.553379-0.475837 3.098571-0.475837 4.714372 0 18.461467 14.965853 33.429367 33.428344 33.429367 18.461467 0 33.428344-14.966876 33.428344-33.429367 0-1.553379-0.251733-3.037173-0.456395-4.533246C437.156408 530.22406 423.325401 517.625114 406.41629 517.625114zM410.241408 546.425044c-2.592035-0.008186-5.210675-0.017396-7.762801-0.023536-4.432962-1.620917-7.633864-5.78168-7.633864-10.775414 0-6.390547 5.179976-11.57257 11.571546-11.57257s11.57257 5.180999 11.57257 11.57257C417.987836 540.659737 414.728606 544.832779 410.241408 546.425044zM671.273517 551.053458c0-1.128707-0.223081-2.194992-0.332575-3.296069-1.678222-16.890692-15.763009-30.133298-33.095769-30.133298-17.191544 0-31.187303 13.026688-33.054837 29.719882-0.138146 1.234107-0.37453 2.439562-0.37453 3.709485 0 18.461467 14.966876 33.429367 33.429367 33.429367C656.30664 584.482825 671.273517 569.515948 671.273517 551.053458zM626.273626 535.62507c0-6.390547 5.179976-11.57257 11.571546-11.57257s11.571546 5.180999 11.571546 11.57257-5.179976 11.571546-11.571546 11.571546S626.273626 542.016641 626.273626 535.62507zM592.201623 653.91108c-50.785663 32.785707-148.500149 1.928932-148.500149 1.928932 5.785773 5.78475 16.072047 26.999934 17.999956 37.284161 2.226714 11.872399 1.928932 33.429367 17.35732 48.215118 15.429411 14.786775 36.643572 13.500479 42.428322 13.500479 5.785773 0 14.785751 0 26.999934-3.856841 12.214183-3.856841 23.785729-19.927865 25.713638-32.143071C576.130599 706.624652 579.988464 689.910992 592.201623 653.91108z" p-id="2918"></path></svg>